<svg id="Capa_1" enable-background="new 0 0 511.907 511.907" height="512" viewBox="0 0 511.907 511.907" width="512" xmlns="http://www.w3.org/2000/svg"><g><g><path d="m409.978 31.66c-41.825-20.416-97.094-31.66-155.623-31.66-.053 0-.105 0-.158.001-13.563.287-31.401.922-49.107 3.31-9.609 1.296-7.606 16.17 2.005 14.865 16.928-2.283 34.182-2.898 47.34-3.177 56.264.01 109.166 10.713 148.964 30.14 38.805 18.942 52.574 39.694 52.574 51.709 0 33.518-68.028 56.037-169.279 56.037-14.996 0-31.277-.542-45.845-1.527-4.834.177-7.503 2.671-8.006 7.483v43.881c.457 4.667 3.025 7.166 7.703 7.497 13.53-.365 26.601-.152 38.85.634 74.454 4.78 102.201 29.43 102.201 43.845v.993c0 6.057-4.946 13.164-13.571 19.498-8.089 5.94-23.458 14.16-50.744 19.58-9.374 1.862-6.157 16.511 2.923 14.713 23.736-4.716 43.343-12.394 56.7-22.203 12.698-9.326 19.692-20.544 19.692-31.588v-.993c0-25.56-35.942-53.659-116.24-58.813-10.354-.666-21.259-.933-32.513-.808v-28.264c12.702.696 26.224 1.073 38.851 1.073 51.913 0 96.305-5.713 128.377-16.521 25.502-8.595 55.902-25.029 55.902-54.516-.002-22.176-22.803-46.546-60.996-65.189z"/><path d="m276.57 299.705c-11.433.646-23.553.801-36.025.466-3.875-.099-7.24 2.807-7.659 6.693-3.592 33.298-7.513 66.574-15.619 99.139-10.649 42.783-25.106 70.869-42.97 83.476-10.22 7.212-21.424 9.216-34.25 6.122-34.1-8.223-65.568-70.79-78.306-155.689-9.159-61.046-7.451-123.754 4.807-176.572 9.713-41.851 31.013-97.492 77.326-124.906 7.879-4.664 16.608-8.64 25.946-11.816 9.181-3.123 4.351-17.32-4.831-14.201-10.314 3.509-19.989 7.919-28.756 13.109-40.269 23.836-69.419 70.318-84.297 134.422-12.676 54.615-14.462 119.318-5.03 182.189 6.457 43.039 17.645 81.341 32.353 110.766 16.163 32.336 35.967 52.143 57.271 57.28 16.205 3.907 32.734 1.207 46.416-8.449 20.889-14.742 37.333-45.731 48.877-92.107 8.975-36.057 13.042-73.378 15.252-94.322 10.452.135 20.63-.074 30.34-.623 9.686-.548 8.832-15.5-.845-14.977z"/><path d="m89.475 299.87c-4.142 0-7.5 3.358-7.5 7.5 0 39.408 13.38 91.169 34.917 135.085 4.16 8.482 17.727 2.08 13.468-6.605-20.281-41.352-33.385-91.783-33.385-128.48 0-4.142-3.358-7.5-7.5-7.5z"/></g></g></svg>